<?xml version="1.0" encoding="UTF-8"?>
<!DOCTYPE svg PUBLIC "-//W3C//DTD SVG 1.1//EN" "http://www.w3.org/Graphics/SVG/1.1/DTD/svg11.dtd">
<!-- Creator: CorelDRAW 2020 (64 Bit) -->
<svg xmlns="http://www.w3.org/2000/svg" xml:space="preserve" width="3543px" height="3543px" version="1.1" style="shape-rendering:geometricPrecision; text-rendering:geometricPrecision; image-rendering:optimizeQuality; fill-rule:evenodd; clip-rule:evenodd"
viewBox="0 0 3543 3543"
 xmlns:xlink="http://www.w3.org/1999/xlink"
 xmlns:xodm="http://www.corel.com/coreldraw/odm/2003">
 <defs>
  <style type="text/css">
   <![CDATA[
    .fil1 {fill:#67391D}
    .fil0 {fill:#FEFEFE}
   ]]>
  </style>
 </defs>
 <g id="Camada_x0020_1">
  <metadata id="CorelCorpID_0Corel-Layer"/>
  <path class="fil0" d="M-153.66 1962.47c-100.6,-47.7 -143.17,-190.11 -197.67,-222.18 -126.3,-74.34 -196.21,513.41 -261.65,-21.29 -2.7,-22.07 -4.14,-80.28 -14.5,-82.21l0.3 329.28c63.98,-1.78 451.41,6.29 473.52,-3.6z"/>
  <path class="fil0" d="M3628.78 1525.71l488.62 -0.02c0.12,-23.37 6.45,-16.08 -16.22,-17.88 -6.92,-0.55 -25.55,0.74 -34.04,0.78 -107.27,0.51 -369.83,-5.31 -439.13,1.16l0.77 15.96z"/>
  <path class="fil1" d="M245.44 1539.77l0 348.84c23.88,-7.8 45.85,-61.41 64.39,-90.87 14.81,-23.54 43.11,-81.91 79.64,-64.7 17.96,8.46 24.33,22.3 36.44,39.18 76.78,107.09 97.18,175.26 222.1,90.31 27.19,-18.49 62.02,-43.91 93.77,-59.85 161.92,-81.31 271.51,52.12 385.94,-25.46 170.16,-115.36 168.91,52.51 306.14,70.09 91.1,11.67 124.73,-175.5 184.9,-153.67 11.73,4.25 12.1,9.76 16.01,23.22 14.5,49.95 34.49,142.83 57.82,176.45 28.26,40.74 63.73,12.22 83.72,-29.85 22.6,-47.54 13.53,-79.38 38.79,-114.86 7.65,-10.75 22.66,-35.13 43.79,-29.61 28.81,7.52 64.65,98.06 108.14,126.44 54.97,35.86 131.13,-60.08 206.61,-84.49 88.31,-28.56 176.41,25.17 255.23,41.98 79.84,17.03 176.99,-44.9 271.76,-16.83 38.95,11.53 71.84,33.89 100.94,52.77 81.54,52.9 130.53,100.82 198.5,6.33l65.37 -90.76c64.34,-68.82 97.62,84.01 145.42,127 2.79,-27.35 0.86,-291.92 0.83,-341.82l-1421.94 0c-120.42,-2.58 -257.97,-0.69 -380.14,-0.65l-1164.17 0.81z"/>
 </g>
</svg>
