<svg xmlns="http://www.w3.org/2000/svg" xmlns:xlink="http://www.w3.org/1999/xlink" width="1366" zoomAndPan="magnify" viewBox="0 0 1024.5 576" height="768" preserveAspectRatio="xMidYMid meet" version="1.0"><defs><clipPath id="417db5e319"><path d="M 0 0.140625 L 1024 0.140625 L 1024 575.859375 L 0 575.859375 Z M 0 0.140625 " clip-rule="nonzero"/></clipPath><clipPath id="8762c9ae0d"><path d="M 0 0.140625 L 260 0.140625 L 260 575.859375 L 0 575.859375 Z M 0 0.140625 " clip-rule="nonzero"/></clipPath><clipPath id="e81304dd35"><path d="M 0 0.140625 L 2 0.140625 L 2 19 L 0 19 Z M 0 0.140625 " clip-rule="nonzero"/></clipPath><clipPath id="4ffe3339d5"><path d="M 5 0.140625 L 91 0.140625 L 91 19 L 5 19 Z M 5 0.140625 " clip-rule="nonzero"/></clipPath><clipPath id="60ce14e46d"><path d="M 94 0.140625 L 180 0.140625 L 180 19 L 94 19 Z M 94 0.140625 " clip-rule="nonzero"/></clipPath><clipPath id="673b9c2df0"><path d="M 183 0.140625 L 269 0.140625 L 269 19 L 183 19 Z M 183 0.140625 " clip-rule="nonzero"/></clipPath><clipPath id="870f09a840"><path d="M 226 22 L 311.648438 22 L 311.648438 64 L 226 64 Z M 226 22 " clip-rule="nonzero"/></clipPath><clipPath id="2c22c4f2b3"><path d="M 226 111 L 311.648438 111 L 311.648438 153 L 226 153 Z M 226 111 " clip-rule="nonzero"/></clipPath><clipPath id="ca101a63d5"><path d="M 226 200 L 311.648438 200 L 311.648438 242 L 226 242 Z M 226 200 " clip-rule="nonzero"/></clipPath><clipPath id="87307c77a5"><path d="M 226 290 L 311.648438 290 L 311.648438 331 L 226 331 Z M 226 290 " clip-rule="nonzero"/></clipPath><clipPath id="3a4463547d"><path d="M 226 379 L 311.648438 379 L 311.648438 421 L 226 421 Z M 226 379 " clip-rule="nonzero"/></clipPath><clipPath id="61abed54b6"><path d="M 226 468 L 311.648438 468 L 311.648438 510 L 226 510 Z M 226 468 " clip-rule="nonzero"/></clipPath><clipPath id="ce1b935a91"><path d="M 0 557 L 44 557 L 44 575.859375 L 0 575.859375 Z M 0 557 " clip-rule="nonzero"/></clipPath><clipPath id="97db49aebf"><path d="M 47 557 L 134 557 L 134 575.859375 L 47 575.859375 Z M 47 557 " clip-rule="nonzero"/></clipPath><clipPath id="c20a061c79"><path d="M 136 557 L 223 557 L 223 575.859375 L 136 575.859375 Z M 136 557 " clip-rule="nonzero"/></clipPath><clipPath id="2a1cfdd07b"><path d="M 226 557 L 311.648438 557 L 311.648438 575.859375 L 226 575.859375 Z M 226 557 " clip-rule="nonzero"/></clipPath><clipPath id="e12e1f9833"><path d="M 752 0.140625 L 1024 0.140625 L 1024 575.859375 L 752 575.859375 Z M 752 0.140625 " clip-rule="nonzero"/></clipPath><clipPath id="ff1c876e02"><path d="M 1011 0.140625 L 1024 0.140625 L 1024 19 L 1011 19 Z M 1011 0.140625 " clip-rule="nonzero"/></clipPath><clipPath id="e48c7c7257"><path d="M 921 0.140625 L 1008 0.140625 L 1008 19 L 921 19 Z M 921 0.140625 " clip-rule="nonzero"/></clipPath><clipPath id="073d20c0e4"><path d="M 832 0.140625 L 918 0.140625 L 918 19 L 832 19 Z M 832 0.140625 " clip-rule="nonzero"/></clipPath><clipPath id="b9bb932e4d"><path d="M 743 0.140625 L 829 0.140625 L 829 19 L 743 19 Z M 743 0.140625 " clip-rule="nonzero"/></clipPath><clipPath id="b756d81ae9"><path d="M 968 22 L 1024 22 L 1024 64 L 968 64 Z M 968 22 " clip-rule="nonzero"/></clipPath><clipPath id="9a4babbed8"><path d="M 700.664062 22 L 786 22 L 786 64 L 700.664062 64 Z M 700.664062 22 " clip-rule="nonzero"/></clipPath><clipPath id="f5cfcb5539"><path d="M 1011 67 L 1024 67 L 1024 108 L 1011 108 Z M 1011 67 " clip-rule="nonzero"/></clipPath><clipPath id="2484be2cf9"><path d="M 968 111 L 1024 111 L 1024 153 L 968 153 Z M 968 111 " clip-rule="nonzero"/></clipPath><clipPath id="2f33d182fb"><path d="M 700.664062 111 L 786 111 L 786 153 L 700.664062 153 Z M 700.664062 111 " clip-rule="nonzero"/></clipPath><clipPath id="8abb5ecfe8"><path d="M 1011 156 L 1024 156 L 1024 198 L 1011 198 Z M 1011 156 " clip-rule="nonzero"/></clipPath><clipPath id="0ba4343fb1"><path d="M 968 200 L 1024 200 L 1024 242 L 968 242 Z M 968 200 " clip-rule="nonzero"/></clipPath><clipPath id="26a3a19db7"><path d="M 700.664062 200 L 786 200 L 786 242 L 700.664062 242 Z M 700.664062 200 " clip-rule="nonzero"/></clipPath><clipPath id="e3ced7d1ea"><path d="M 1011 245 L 1024 245 L 1024 287 L 1011 287 Z M 1011 245 " clip-rule="nonzero"/></clipPath><clipPath id="3689312a31"><path d="M 968 290 L 1024 290 L 1024 331 L 968 331 Z M 968 290 " clip-rule="nonzero"/></clipPath><clipPath id="2df29ec941"><path d="M 700.664062 290 L 786 290 L 786 331 L 700.664062 331 Z M 700.664062 290 " clip-rule="nonzero"/></clipPath><clipPath id="ce22eb6344"><path d="M 1011 334 L 1024 334 L 1024 376 L 1011 376 Z M 1011 334 " clip-rule="nonzero"/></clipPath><clipPath id="1e325d8108"><path d="M 968 379 L 1024 379 L 1024 421 L 968 421 Z M 968 379 " clip-rule="nonzero"/></clipPath><clipPath id="035684ae0e"><path d="M 700.664062 379 L 786 379 L 786 421 L 700.664062 421 Z M 700.664062 379 " clip-rule="nonzero"/></clipPath><clipPath id="90e164b74f"><path d="M 1011 424 L 1024 424 L 1024 465 L 1011 465 Z M 1011 424 " clip-rule="nonzero"/></clipPath><clipPath id="8aa6de796b"><path d="M 968 468 L 1024 468 L 1024 510 L 968 510 Z M 968 468 " clip-rule="nonzero"/></clipPath><clipPath id="0ddab479b0"><path d="M 700.664062 468 L 786 468 L 786 510 L 700.664062 510 Z M 700.664062 468 " clip-rule="nonzero"/></clipPath><clipPath id="efe568dbfa"><path d="M 1011 513 L 1024 513 L 1024 555 L 1011 555 Z M 1011 513 " clip-rule="nonzero"/></clipPath><clipPath id="1ade181bb4"><path d="M 968 557 L 1024 557 L 1024 575.859375 L 968 575.859375 Z M 968 557 " clip-rule="nonzero"/></clipPath><clipPath id="41e2fc4147"><path d="M 879 557 L 965 557 L 965 575.859375 L 879 575.859375 Z M 879 557 " clip-rule="nonzero"/></clipPath><clipPath id="697833ff09"><path d="M 789 557 L 876 557 L 876 575.859375 L 789 575.859375 Z M 789 557 " clip-rule="nonzero"/></clipPath><clipPath id="8f43980612"><path d="M 700.664062 557 L 786 557 L 786 575.859375 L 700.664062 575.859375 Z M 700.664062 557 " clip-rule="nonzero"/></clipPath></defs><g clip-path="url(#417db5e319)"><path fill="#ffffff" d="M 0 0.140625 L 1024.5 0.140625 L 1024.5 583.640625 L 0 583.640625 Z M 0 0.140625 " fill-opacity="1" fill-rule="nonzero"/><path fill="#ffffff" d="M 0 0.140625 L 1024.5 0.140625 L 1024.5 576.140625 L 0 576.140625 Z M 0 0.140625 " fill-opacity="1" fill-rule="nonzero"/><path fill="#ad8a73" d="M 0 0.140625 L 1024.5 0.140625 L 1024.5 576.140625 L 0 576.140625 Z M 0 0.140625 " fill-opacity="1" fill-rule="nonzero"/></g><g clip-path="url(#8762c9ae0d)"><path fill="#67391d" d="M 259.507812 583.988281 L -337.542969 583.988281 L -337.542969 -13.125 L 259.507812 -13.125 L 259.507812 583.988281 " fill-opacity="1" fill-rule="nonzero"/></g><g clip-path="url(#e81304dd35)"><path fill="#7d5b44" d="M 1.15625 18.492188 L -84.222656 18.492188 L -84.222656 -22.261719 L 1.15625 -22.261719 L 1.15625 18.492188 " fill-opacity="1" fill-rule="nonzero"/></g><g clip-path="url(#4ffe3339d5)"><path fill="#7d5b44" d="M 90.414062 18.492188 L 5.039062 18.492188 L 5.039062 -22.261719 L 90.414062 -22.261719 L 90.414062 18.492188 " fill-opacity="1" fill-rule="nonzero"/></g><g clip-path="url(#60ce14e46d)"><path fill="#784421" d="M 179.675781 18.492188 L 94.296875 18.492188 L 94.296875 -22.261719 L 179.675781 -22.261719 L 179.675781 18.492188 " fill-opacity="1" fill-rule="nonzero"/></g><g clip-path="url(#673b9c2df0)"><path fill="#543723" d="M 268.933594 18.492188 L 183.554688 18.492188 L 183.554688 -22.261719 L 268.933594 -22.261719 L 268.933594 18.492188 " fill-opacity="1" fill-rule="nonzero"/></g><path fill="#784421" d="M 43.847656 63.128906 L -41.53125 63.128906 L -41.53125 22.375 L 43.847656 22.375 L 43.847656 63.128906 " fill-opacity="1" fill-rule="nonzero"/><path fill="#7d5b44" d="M 133.105469 63.128906 L 47.726562 63.128906 L 47.726562 22.375 L 133.105469 22.375 L 133.105469 63.128906 " fill-opacity="1" fill-rule="nonzero"/><path fill="#7d5b44" d="M 222.363281 63.128906 L 136.984375 63.128906 L 136.984375 22.375 L 222.363281 22.375 L 222.363281 63.128906 " fill-opacity="1" fill-rule="nonzero"/><g clip-path="url(#870f09a840)"><path fill="#784421" d="M 311.625 63.125 L 226.246094 63.125 L 226.246094 22.371094 L 311.625 22.371094 L 311.625 63.125 " fill-opacity="1" fill-rule="nonzero"/></g><path fill="#7d5b44" d="M 1.160156 107.761719 L -84.21875 107.761719 L -84.21875 67.007812 L 1.160156 67.007812 L 1.160156 107.761719 " fill-opacity="1" fill-rule="nonzero"/><path fill="#7d5b44" d="M 90.417969 107.761719 L 5.039062 107.761719 L 5.039062 67.007812 L 90.417969 67.007812 L 90.417969 107.761719 " fill-opacity="1" fill-rule="nonzero"/><path fill="#7d5b44" d="M 179.675781 107.761719 L 94.296875 107.761719 L 94.296875 67.007812 L 179.675781 67.007812 L 179.675781 107.761719 " fill-opacity="1" fill-rule="nonzero"/><path fill="#57351d" d="M 268.933594 107.761719 L 183.554688 107.761719 L 183.554688 67.011719 L 268.933594 67.011719 L 268.933594 107.761719 " fill-opacity="1" fill-rule="nonzero"/><path fill="#784421" d="M 43.847656 152.394531 L -41.53125 152.394531 L -41.53125 111.644531 L 43.847656 111.644531 L 43.847656 152.394531 " fill-opacity="1" fill-rule="nonzero"/><path fill="#7d5b44" d="M 133.105469 152.394531 L 47.726562 152.394531 L 47.726562 111.644531 L 133.105469 111.644531 L 133.105469 152.394531 " fill-opacity="1" fill-rule="nonzero"/><path fill="#543723" d="M 222.367188 152.394531 L 136.988281 152.394531 L 136.988281 111.640625 L 222.367188 111.640625 L 222.367188 152.394531 " fill-opacity="1" fill-rule="nonzero"/><g clip-path="url(#2c22c4f2b3)"><path fill="#7d5b44" d="M 311.625 152.398438 L 226.246094 152.398438 L 226.246094 111.644531 L 311.625 111.644531 L 311.625 152.398438 " fill-opacity="1" fill-rule="nonzero"/></g><path fill="#7d5b44" d="M 1.15625 197.03125 L -84.21875 197.03125 L -84.21875 156.277344 L 1.15625 156.277344 L 1.15625 197.03125 " fill-opacity="1" fill-rule="nonzero"/><path fill="#57351d" d="M 90.417969 197.027344 L 5.039062 197.027344 L 5.039062 156.277344 L 90.417969 156.277344 L 90.417969 197.027344 " fill-opacity="1" fill-rule="nonzero"/><path fill="#7d5b44" d="M 179.675781 197.027344 L 94.296875 197.027344 L 94.296875 156.277344 L 179.675781 156.277344 L 179.675781 197.027344 " fill-opacity="1" fill-rule="nonzero"/><path fill="#7d5b44" d="M 268.933594 197.03125 L 183.554688 197.03125 L 183.554688 156.277344 L 268.933594 156.277344 L 268.933594 197.03125 " fill-opacity="1" fill-rule="nonzero"/><path fill="#543723" d="M 43.84375 241.664062 L -41.53125 241.664062 L -41.53125 200.910156 L 43.84375 200.910156 L 43.84375 241.664062 " fill-opacity="1" fill-rule="nonzero"/><path fill="#7d5b44" d="M 133.105469 241.664062 L 47.726562 241.664062 L 47.726562 200.910156 L 133.105469 200.910156 L 133.105469 241.664062 " fill-opacity="1" fill-rule="nonzero"/><path fill="#7d5b44" d="M 222.367188 241.664062 L 136.988281 241.664062 L 136.988281 200.910156 L 222.367188 200.910156 L 222.367188 241.664062 " fill-opacity="1" fill-rule="nonzero"/><g clip-path="url(#ca101a63d5)"><path fill="#7d5b44" d="M 311.625 241.664062 L 226.246094 241.664062 L 226.246094 200.910156 L 311.625 200.910156 L 311.625 241.664062 " fill-opacity="1" fill-rule="nonzero"/></g><path fill="#7d5b44" d="M 1.160156 286.296875 L -84.21875 286.296875 L -84.21875 245.542969 L 1.160156 245.542969 L 1.160156 286.296875 " fill-opacity="1" fill-rule="nonzero"/><path fill="#7d5b44" d="M 90.417969 286.296875 L 5.039062 286.296875 L 5.039062 245.546875 L 90.417969 245.546875 L 90.417969 286.296875 " fill-opacity="1" fill-rule="nonzero"/><path fill="#784421" d="M 179.675781 286.296875 L 94.296875 286.296875 L 94.296875 245.542969 L 179.675781 245.542969 L 179.675781 286.296875 " fill-opacity="1" fill-rule="nonzero"/><path fill="#543723" d="M 268.933594 286.296875 L 183.554688 286.296875 L 183.554688 245.546875 L 268.933594 245.546875 L 268.933594 286.296875 " fill-opacity="1" fill-rule="nonzero"/><path fill="#784421" d="M 43.847656 330.933594 L -41.53125 330.933594 L -41.53125 290.179688 L 43.847656 290.179688 L 43.847656 330.933594 " fill-opacity="1" fill-rule="nonzero"/><path fill="#7d5b44" d="M 133.105469 330.933594 L 47.726562 330.933594 L 47.726562 290.179688 L 133.105469 290.179688 L 133.105469 330.933594 " fill-opacity="1" fill-rule="nonzero"/><path fill="#7d5b44" d="M 222.367188 330.933594 L 136.988281 330.933594 L 136.988281 290.179688 L 222.367188 290.179688 L 222.367188 330.933594 " fill-opacity="1" fill-rule="nonzero"/><g clip-path="url(#87307c77a5)"><path fill="#784421" d="M 311.625 330.933594 L 226.246094 330.933594 L 226.246094 290.179688 L 311.625 290.179688 L 311.625 330.933594 " fill-opacity="1" fill-rule="nonzero"/></g><path fill="#7d5b44" d="M 1.160156 375.566406 L -84.21875 375.566406 L -84.21875 334.8125 L 1.160156 334.8125 L 1.160156 375.566406 " fill-opacity="1" fill-rule="nonzero"/><path fill="#7d5b44" d="M 90.417969 375.566406 L 5.039062 375.566406 L 5.039062 334.8125 L 90.417969 334.8125 L 90.417969 375.566406 " fill-opacity="1" fill-rule="nonzero"/><path fill="#7d5b44" d="M 179.675781 375.566406 L 94.296875 375.566406 L 94.296875 334.8125 L 179.675781 334.8125 L 179.675781 375.566406 " fill-opacity="1" fill-rule="nonzero"/><path fill="#57351d" d="M 268.933594 375.566406 L 183.554688 375.566406 L 183.554688 334.8125 L 268.933594 334.8125 L 268.933594 375.566406 " fill-opacity="1" fill-rule="nonzero"/><path fill="#784421" d="M 43.847656 420.203125 L -41.53125 420.203125 L -41.53125 379.449219 L 43.847656 379.449219 L 43.847656 420.203125 " fill-opacity="1" fill-rule="nonzero"/><path fill="#7d5b44" d="M 133.105469 420.203125 L 47.726562 420.203125 L 47.726562 379.449219 L 133.105469 379.449219 L 133.105469 420.203125 " fill-opacity="1" fill-rule="nonzero"/><path fill="#543723" d="M 222.367188 420.203125 L 136.988281 420.203125 L 136.988281 379.449219 L 222.367188 379.449219 L 222.367188 420.203125 " fill-opacity="1" fill-rule="nonzero"/><g clip-path="url(#3a4463547d)"><path fill="#7d5b44" d="M 311.625 420.203125 L 226.246094 420.203125 L 226.246094 379.449219 L 311.625 379.449219 L 311.625 420.203125 " fill-opacity="1" fill-rule="nonzero"/></g><path fill="#7d5b44" d="M 1.160156 464.835938 L -84.21875 464.835938 L -84.21875 424.082031 L 1.160156 424.082031 L 1.160156 464.835938 " fill-opacity="1" fill-rule="nonzero"/><path fill="#57351d" d="M 90.417969 464.835938 L 5.039062 464.835938 L 5.039062 424.082031 L 90.417969 424.082031 L 90.417969 464.835938 " fill-opacity="1" fill-rule="nonzero"/><path fill="#7d5b44" d="M 179.675781 464.835938 L 94.296875 464.835938 L 94.296875 424.082031 L 179.675781 424.082031 L 179.675781 464.835938 " fill-opacity="1" fill-rule="nonzero"/><path fill="#7d5b44" d="M 268.933594 464.835938 L 183.554688 464.835938 L 183.554688 424.082031 L 268.933594 424.082031 L 268.933594 464.835938 " fill-opacity="1" fill-rule="nonzero"/><path fill="#543723" d="M 43.847656 509.46875 L -41.53125 509.46875 L -41.53125 468.71875 L 43.847656 468.71875 L 43.847656 509.46875 " fill-opacity="1" fill-rule="nonzero"/><path fill="#7d5b44" d="M 133.105469 509.46875 L 47.726562 509.46875 L 47.726562 468.71875 L 133.105469 468.71875 L 133.105469 509.46875 " fill-opacity="1" fill-rule="nonzero"/><path fill="#7d5b44" d="M 222.367188 509.46875 L 136.988281 509.46875 L 136.988281 468.71875 L 222.367188 468.71875 L 222.367188 509.46875 " fill-opacity="1" fill-rule="nonzero"/><g clip-path="url(#61abed54b6)"><path fill="#7d5b44" d="M 311.625 509.46875 L 226.246094 509.46875 L 226.246094 468.71875 L 311.625 468.71875 L 311.625 509.46875 " fill-opacity="1" fill-rule="nonzero"/></g><path fill="#7d5b44" d="M 1.160156 554.105469 L -84.21875 554.105469 L -84.21875 513.351562 L 1.160156 513.351562 L 1.160156 554.105469 " fill-opacity="1" fill-rule="nonzero"/><path fill="#7d5b44" d="M 90.417969 554.105469 L 5.039062 554.105469 L 5.039062 513.351562 L 90.417969 513.351562 L 90.417969 554.105469 " fill-opacity="1" fill-rule="nonzero"/><path fill="#784421" d="M 179.675781 554.105469 L 94.296875 554.105469 L 94.296875 513.351562 L 179.675781 513.351562 L 179.675781 554.105469 " fill-opacity="1" fill-rule="nonzero"/><path fill="#543723" d="M 268.933594 554.105469 L 183.554688 554.105469 L 183.554688 513.351562 L 268.933594 513.351562 L 268.933594 554.105469 " fill-opacity="1" fill-rule="nonzero"/><g clip-path="url(#ce1b935a91)"><path fill="#784421" d="M 43.847656 598.738281 L -41.53125 598.738281 L -41.53125 557.984375 L 43.847656 557.984375 L 43.847656 598.738281 " fill-opacity="1" fill-rule="nonzero"/></g><g clip-path="url(#97db49aebf)"><path fill="#7d5b44" d="M 133.105469 598.738281 L 47.726562 598.738281 L 47.726562 557.984375 L 133.105469 557.984375 L 133.105469 598.738281 " fill-opacity="1" fill-rule="nonzero"/></g><g clip-path="url(#c20a061c79)"><path fill="#7d5b44" d="M 222.367188 598.738281 L 136.988281 598.738281 L 136.988281 557.984375 L 222.367188 557.984375 L 222.367188 598.738281 " fill-opacity="1" fill-rule="nonzero"/></g><g clip-path="url(#2a1cfdd07b)"><path fill="#784421" d="M 311.625 598.738281 L 226.246094 598.738281 L 226.246094 557.984375 L 311.625 557.984375 L 311.625 598.738281 " fill-opacity="1" fill-rule="nonzero"/></g><g clip-path="url(#e12e1f9833)"><path fill="#67391d" d="M 752.652344 583.988281 L 1349.703125 583.988281 L 1349.703125 -13.125 L 752.652344 -13.125 L 752.652344 583.988281 " fill-opacity="1" fill-rule="nonzero"/></g><g clip-path="url(#ff1c876e02)"><path fill="#7d5b44" d="M 1011.003906 18.492188 L 1096.382812 18.492188 L 1096.382812 -22.261719 L 1011.003906 -22.261719 L 1011.003906 18.492188 " fill-opacity="1" fill-rule="nonzero"/></g><g clip-path="url(#e48c7c7257)"><path fill="#7d5b44" d="M 921.746094 18.492188 L 1007.121094 18.492188 L 1007.121094 -22.261719 L 921.746094 -22.261719 L 921.746094 18.492188 " fill-opacity="1" fill-rule="nonzero"/></g><g clip-path="url(#073d20c0e4)"><path fill="#784421" d="M 832.484375 18.492188 L 917.863281 18.492188 L 917.863281 -22.261719 L 832.484375 -22.261719 L 832.484375 18.492188 " fill-opacity="1" fill-rule="nonzero"/></g><g clip-path="url(#b9bb932e4d)"><path fill="#543723" d="M 743.226562 18.492188 L 828.605469 18.492188 L 828.605469 -22.261719 L 743.226562 -22.261719 L 743.226562 18.492188 " fill-opacity="1" fill-rule="nonzero"/></g><g clip-path="url(#b756d81ae9)"><path fill="#784421" d="M 968.3125 63.128906 L 1053.691406 63.128906 L 1053.691406 22.375 L 968.3125 22.375 L 968.3125 63.128906 " fill-opacity="1" fill-rule="nonzero"/></g><path fill="#7d5b44" d="M 879.054688 63.128906 L 964.433594 63.128906 L 964.433594 22.375 L 879.054688 22.375 L 879.054688 63.128906 " fill-opacity="1" fill-rule="nonzero"/><path fill="#7d5b44" d="M 789.796875 63.128906 L 875.175781 63.128906 L 875.175781 22.375 L 789.796875 22.375 L 789.796875 63.128906 " fill-opacity="1" fill-rule="nonzero"/><g clip-path="url(#9a4babbed8)"><path fill="#784421" d="M 700.535156 63.125 L 785.914062 63.125 L 785.914062 22.371094 L 700.535156 22.371094 L 700.535156 63.125 " fill-opacity="1" fill-rule="nonzero"/></g><g clip-path="url(#f5cfcb5539)"><path fill="#7d5b44" d="M 1011 107.761719 L 1096.382812 107.761719 L 1096.382812 67.007812 L 1011 67.007812 L 1011 107.761719 " fill-opacity="1" fill-rule="nonzero"/></g><path fill="#7d5b44" d="M 921.742188 107.761719 L 1007.121094 107.761719 L 1007.121094 67.007812 L 921.742188 67.007812 L 921.742188 107.761719 " fill-opacity="1" fill-rule="nonzero"/><path fill="#7d5b44" d="M 832.484375 107.761719 L 917.863281 107.761719 L 917.863281 67.007812 L 832.484375 67.007812 L 832.484375 107.761719 " fill-opacity="1" fill-rule="nonzero"/><path fill="#57351d" d="M 743.226562 107.761719 L 828.605469 107.761719 L 828.605469 67.011719 L 743.226562 67.011719 L 743.226562 107.761719 " fill-opacity="1" fill-rule="nonzero"/><g clip-path="url(#2484be2cf9)"><path fill="#784421" d="M 968.3125 152.394531 L 1053.691406 152.394531 L 1053.691406 111.644531 L 968.3125 111.644531 L 968.3125 152.394531 " fill-opacity="1" fill-rule="nonzero"/></g><path fill="#7d5b44" d="M 879.054688 152.394531 L 964.433594 152.394531 L 964.433594 111.644531 L 879.054688 111.644531 L 879.054688 152.394531 " fill-opacity="1" fill-rule="nonzero"/><path fill="#543723" d="M 789.792969 152.394531 L 875.171875 152.394531 L 875.171875 111.640625 L 789.792969 111.640625 L 789.792969 152.394531 " fill-opacity="1" fill-rule="nonzero"/><g clip-path="url(#2f33d182fb)"><path fill="#7d5b44" d="M 700.535156 152.398438 L 785.914062 152.398438 L 785.914062 111.644531 L 700.535156 111.644531 L 700.535156 152.398438 " fill-opacity="1" fill-rule="nonzero"/></g><g clip-path="url(#8abb5ecfe8)"><path fill="#7d5b44" d="M 1011.003906 197.03125 L 1096.382812 197.03125 L 1096.382812 156.277344 L 1011.003906 156.277344 L 1011.003906 197.03125 " fill-opacity="1" fill-rule="nonzero"/></g><path fill="#57351d" d="M 921.742188 197.027344 L 1007.121094 197.027344 L 1007.121094 156.277344 L 921.742188 156.277344 L 921.742188 197.027344 " fill-opacity="1" fill-rule="nonzero"/><path fill="#7d5b44" d="M 832.484375 197.027344 L 917.863281 197.027344 L 917.863281 156.277344 L 832.484375 156.277344 L 832.484375 197.027344 " fill-opacity="1" fill-rule="nonzero"/><path fill="#7d5b44" d="M 743.226562 197.03125 L 828.605469 197.03125 L 828.605469 156.277344 L 743.226562 156.277344 L 743.226562 197.03125 " fill-opacity="1" fill-rule="nonzero"/><g clip-path="url(#0ba4343fb1)"><path fill="#543723" d="M 968.316406 241.664062 L 1053.691406 241.664062 L 1053.691406 200.910156 L 968.316406 200.910156 L 968.316406 241.664062 " fill-opacity="1" fill-rule="nonzero"/></g><path fill="#7d5b44" d="M 879.054688 241.664062 L 964.433594 241.664062 L 964.433594 200.910156 L 879.054688 200.910156 L 879.054688 241.664062 " fill-opacity="1" fill-rule="nonzero"/><path fill="#7d5b44" d="M 789.792969 241.664062 L 875.171875 241.664062 L 875.171875 200.910156 L 789.792969 200.910156 L 789.792969 241.664062 " fill-opacity="1" fill-rule="nonzero"/><g clip-path="url(#26a3a19db7)"><path fill="#7d5b44" d="M 700.535156 241.664062 L 785.914062 241.664062 L 785.914062 200.910156 L 700.535156 200.910156 L 700.535156 241.664062 " fill-opacity="1" fill-rule="nonzero"/></g><g clip-path="url(#e3ced7d1ea)"><path fill="#7d5b44" d="M 1011.003906 286.296875 L 1096.378906 286.296875 L 1096.378906 245.542969 L 1011.003906 245.542969 L 1011.003906 286.296875 " fill-opacity="1" fill-rule="nonzero"/></g><path fill="#7d5b44" d="M 921.742188 286.296875 L 1007.121094 286.296875 L 1007.121094 245.546875 L 921.742188 245.546875 L 921.742188 286.296875 " fill-opacity="1" fill-rule="nonzero"/><path fill="#784421" d="M 832.484375 286.296875 L 917.863281 286.296875 L 917.863281 245.542969 L 832.484375 245.542969 L 832.484375 286.296875 " fill-opacity="1" fill-rule="nonzero"/><path fill="#543723" d="M 743.226562 286.296875 L 828.605469 286.296875 L 828.605469 245.546875 L 743.226562 245.546875 L 743.226562 286.296875 " fill-opacity="1" fill-rule="nonzero"/><g clip-path="url(#3689312a31)"><path fill="#784421" d="M 968.3125 330.933594 L 1053.691406 330.933594 L 1053.691406 290.179688 L 968.3125 290.179688 L 968.3125 330.933594 " fill-opacity="1" fill-rule="nonzero"/></g><path fill="#7d5b44" d="M 879.054688 330.933594 L 964.433594 330.933594 L 964.433594 290.179688 L 879.054688 290.179688 L 879.054688 330.933594 " fill-opacity="1" fill-rule="nonzero"/><path fill="#7d5b44" d="M 789.792969 330.933594 L 875.171875 330.933594 L 875.171875 290.179688 L 789.792969 290.179688 L 789.792969 330.933594 " fill-opacity="1" fill-rule="nonzero"/><g clip-path="url(#2df29ec941)"><path fill="#784421" d="M 700.535156 330.933594 L 785.914062 330.933594 L 785.914062 290.179688 L 700.535156 290.179688 L 700.535156 330.933594 " fill-opacity="1" fill-rule="nonzero"/></g><g clip-path="url(#ce22eb6344)"><path fill="#7d5b44" d="M 1011.003906 375.566406 L 1096.378906 375.566406 L 1096.378906 334.8125 L 1011.003906 334.8125 L 1011.003906 375.566406 " fill-opacity="1" fill-rule="nonzero"/></g><path fill="#7d5b44" d="M 921.742188 375.566406 L 1007.121094 375.566406 L 1007.121094 334.8125 L 921.742188 334.8125 L 921.742188 375.566406 " fill-opacity="1" fill-rule="nonzero"/><path fill="#7d5b44" d="M 832.484375 375.566406 L 917.863281 375.566406 L 917.863281 334.8125 L 832.484375 334.8125 L 832.484375 375.566406 " fill-opacity="1" fill-rule="nonzero"/><path fill="#57351d" d="M 743.226562 375.566406 L 828.605469 375.566406 L 828.605469 334.8125 L 743.226562 334.8125 L 743.226562 375.566406 " fill-opacity="1" fill-rule="nonzero"/><g clip-path="url(#1e325d8108)"><path fill="#784421" d="M 968.3125 420.203125 L 1053.691406 420.203125 L 1053.691406 379.449219 L 968.3125 379.449219 L 968.3125 420.203125 " fill-opacity="1" fill-rule="nonzero"/></g><path fill="#7d5b44" d="M 879.054688 420.203125 L 964.433594 420.203125 L 964.433594 379.449219 L 879.054688 379.449219 L 879.054688 420.203125 " fill-opacity="1" fill-rule="nonzero"/><path fill="#543723" d="M 789.792969 420.203125 L 875.171875 420.203125 L 875.171875 379.449219 L 789.792969 379.449219 L 789.792969 420.203125 " fill-opacity="1" fill-rule="nonzero"/><g clip-path="url(#035684ae0e)"><path fill="#7d5b44" d="M 700.535156 420.203125 L 785.914062 420.203125 L 785.914062 379.449219 L 700.535156 379.449219 L 700.535156 420.203125 " fill-opacity="1" fill-rule="nonzero"/></g><g clip-path="url(#90e164b74f)"><path fill="#7d5b44" d="M 1011.003906 464.835938 L 1096.378906 464.835938 L 1096.378906 424.082031 L 1011.003906 424.082031 L 1011.003906 464.835938 " fill-opacity="1" fill-rule="nonzero"/></g><path fill="#57351d" d="M 921.742188 464.835938 L 1007.121094 464.835938 L 1007.121094 424.082031 L 921.742188 424.082031 L 921.742188 464.835938 " fill-opacity="1" fill-rule="nonzero"/><path fill="#7d5b44" d="M 832.484375 464.835938 L 917.863281 464.835938 L 917.863281 424.082031 L 832.484375 424.082031 L 832.484375 464.835938 " fill-opacity="1" fill-rule="nonzero"/><path fill="#7d5b44" d="M 743.226562 464.835938 L 828.605469 464.835938 L 828.605469 424.082031 L 743.226562 424.082031 L 743.226562 464.835938 " fill-opacity="1" fill-rule="nonzero"/><g clip-path="url(#8aa6de796b)"><path fill="#543723" d="M 968.3125 509.46875 L 1053.691406 509.46875 L 1053.691406 468.71875 L 968.3125 468.71875 L 968.3125 509.46875 " fill-opacity="1" fill-rule="nonzero"/></g><path fill="#7d5b44" d="M 879.054688 509.46875 L 964.433594 509.46875 L 964.433594 468.71875 L 879.054688 468.71875 L 879.054688 509.46875 " fill-opacity="1" fill-rule="nonzero"/><path fill="#7d5b44" d="M 789.792969 509.46875 L 875.171875 509.46875 L 875.171875 468.71875 L 789.792969 468.71875 L 789.792969 509.46875 " fill-opacity="1" fill-rule="nonzero"/><g clip-path="url(#0ddab479b0)"><path fill="#7d5b44" d="M 700.535156 509.46875 L 785.914062 509.46875 L 785.914062 468.71875 L 700.535156 468.71875 L 700.535156 509.46875 " fill-opacity="1" fill-rule="nonzero"/></g><g clip-path="url(#efe568dbfa)"><path fill="#7d5b44" d="M 1011.003906 554.105469 L 1096.378906 554.105469 L 1096.378906 513.351562 L 1011.003906 513.351562 L 1011.003906 554.105469 " fill-opacity="1" fill-rule="nonzero"/></g><path fill="#7d5b44" d="M 921.742188 554.105469 L 1007.121094 554.105469 L 1007.121094 513.351562 L 921.742188 513.351562 L 921.742188 554.105469 " fill-opacity="1" fill-rule="nonzero"/><path fill="#784421" d="M 832.484375 554.105469 L 917.863281 554.105469 L 917.863281 513.351562 L 832.484375 513.351562 L 832.484375 554.105469 " fill-opacity="1" fill-rule="nonzero"/><path fill="#543723" d="M 743.226562 554.105469 L 828.605469 554.105469 L 828.605469 513.351562 L 743.226562 513.351562 L 743.226562 554.105469 " fill-opacity="1" fill-rule="nonzero"/><g clip-path="url(#1ade181bb4)"><path fill="#784421" d="M 968.3125 598.738281 L 1053.691406 598.738281 L 1053.691406 557.984375 L 968.3125 557.984375 L 968.3125 598.738281 " fill-opacity="1" fill-rule="nonzero"/></g><g clip-path="url(#41e2fc4147)"><path fill="#7d5b44" d="M 879.054688 598.738281 L 964.433594 598.738281 L 964.433594 557.984375 L 879.054688 557.984375 L 879.054688 598.738281 " fill-opacity="1" fill-rule="nonzero"/></g><g clip-path="url(#697833ff09)"><path fill="#7d5b44" d="M 789.792969 598.738281 L 875.171875 598.738281 L 875.171875 557.984375 L 789.792969 557.984375 L 789.792969 598.738281 " fill-opacity="1" fill-rule="nonzero"/></g><g clip-path="url(#8f43980612)"><path fill="#784421" d="M 700.535156 598.738281 L 785.914062 598.738281 L 785.914062 557.984375 L 700.535156 557.984375 L 700.535156 598.738281 " fill-opacity="1" fill-rule="nonzero"/></g></svg>